<svg xmlns:ed="https://www.edrawsoft.cn/xml/2017/SVGExtensions/" ed:hSpacing="30" xmlns:xlink="http://www.w3.org/1999/xlink" ed:vSpacing="40" height="1452" viewBox="0 0 1195 1452" ed:name="复杂流程生命周期" xmlns:ev="http://www.w3.org/2001/xml-events" width="1195" id="page100" xmlns="http://www.w3.org/2000/svg"><style type="text/css"><![CDATA[
g[ed\:togtopicid],g[ed\:hyperlink],g[ed\:comment],g[ed\:note] {cursor:pointer;}
g[id] {-moz-user-select: none;-ms-user-select: none;user-select: none;}
svg text::selection,svg tspan::selection{background-color: #4285f4;color: #ffffff;fill: #ffffff;}
.st9 {fill:#000000;font-family:微软雅黑;font-size:14pt;font-weight:bold}
.st4 {fill:#009a49;font-size:10pt}
.st2 {fill:#009a49;font-size:12pt}
.st8 {fill:#454545;font-family:微软雅黑;font-size:10pt}
.st10 {fill:#ff0000;font-family:微软雅黑;font-size:10pt}
.st3 {fill:#ffffff;font-family:微软雅黑;font-size:14pt;font-weight:bold}
.st1 {fill:#ffffff;font-family:微软雅黑;font-size:18pt;font-weight:bold}
.st5 {fill:#ffffff;font-family:微软雅黑;font-size:9pt}
.st7 {font-size:10pt}
.st6 {font-size:16pt}
.st11 {font-size:9pt}
]]></style><defs/><rect y="0" x="0" height="1452" width="1195" fill="#ffffff"/><path stroke-linejoin="round" transform="matrix(1,0,0,1,305.71,63.5)" ed:tosuperid="104" stroke="#696969" ed:parentid="101" id="105" fill="none" stroke-width="3" stroke-linecap="round" d="M-19.5,0L19.5,0"/><path stroke-linejoin="round" transform="matrix(1,0,0,1,506.59,63.5)" ed:tosuperid="106" stroke="#696969" ed:parentid="101" id="107" fill="none" stroke-width="3" stroke-linecap="round" d="M-19.5,0L19.5,0"/><path stroke-linejoin="round" transform="matrix(1,0,0,1,728.83,63.5)" ed:tosuperid="108" stroke="#696969" ed:parentid="101" id="109" fill="none" stroke-width="3" stroke-linecap="round" d="M-19.5,0L19.5,0"/><path stroke-linejoin="round" transform="matrix(1,0,0,1,988.85,135.75)" ed:tosuperid="110" stroke="#696969" ed:parentid="101" id="111" fill="none" stroke-width="3" stroke-linecap="round" d="M0,-72.3C96.7,-72.3,96.7,72.3,0,72.3"/><path stroke-linejoin="round" transform="matrix(1,0,0,1,728.83,208)" ed:tosuperid="112" stroke="#696969" ed:parentid="101" id="113" fill="none" stroke-width="3" stroke-linecap="round" d="M19.5,0L-19.5,0"/><path stroke-linejoin="round" transform="matrix(1,0,0,1,459.59,208)" ed:tosuperid="114" stroke="#696969" ed:parentid="101" id="115" fill="none" stroke-width="3" stroke-linecap="round" d="M19.5,0L-19.5,0"/><path stroke-linejoin="round" transform="matrix(1,0,0,1,303.81,281.75)" ed:tosuperid="116" stroke="#696969" ed:parentid="101" id="117" fill="none" stroke-width="3" stroke-linecap="round" d="M0,-73.8C-98.5,-73.8,-98.5,73.8,0,73.8"/><path stroke-linejoin="round" transform="matrix(1,0,0,1,546.95,355.5)" ed:tosuperid="118" stroke="#696969" ed:parentid="101" id="119" fill="none" stroke-width="3" stroke-linecap="round" d="M-19.5,0L19.5,0"/><path stroke-linejoin="round" transform="matrix(1,0,0,1,809.59,355.5)" ed:tosuperid="152" stroke="#696969" ed:parentid="101" id="153" fill="none" stroke-width="3" stroke-linecap="round" d="M-19.5,0L19.5,0"/><path stroke-linejoin="round" transform="matrix(1,0,0,1,295.93,581.5)" ed:tosuperid="158" stroke="#696969" ed:parentid="101" id="159" fill="none" stroke-width="3" stroke-linecap="round" d="M0,-81C-107.2,-81,-107.2,81,0,81"/><path stroke-linejoin="round" transform="matrix(1,0,0,1,1099.73,428)" ed:tosuperid="263" stroke="#696969" ed:parentid="101" id="266" fill="none" stroke-width="3" stroke-linecap="round" d="M0,-72.5C97,-72.5,97,72.5,0,72.5"/><path stroke-linejoin="round" transform="matrix(1,0,0,1,755.59,500.5)" ed:tosuperid="252" stroke="#696969" ed:parentid="101" id="267" fill="none" stroke-width="3" stroke-linecap="round" d="M19.5,0L-19.5,0"/><path stroke-linejoin="round" transform="matrix(1,0,0,1,467.71,500.5)" ed:tosuperid="268" stroke="#696969" ed:parentid="101" id="269" fill="none" stroke-width="3" stroke-linecap="round" d="M19.5,0L-19.5,0"/><path stroke-linejoin="round" transform="matrix(1,0,0,1,758.59,662.5)" ed:tosuperid="270" stroke="#696969" ed:parentid="101" id="274" fill="none" stroke-width="3" stroke-linecap="round" d="M-19.5,0L19.5,0"/><path stroke-linejoin="round" transform="matrix(1,0,0,1,858.19,809.5)" ed:tosuperid="271" stroke="#696969" ed:parentid="101" id="275" fill="none" stroke-width="3" stroke-linecap="round" d="M19.5,0L-19.5,0"/><path stroke-linejoin="round" transform="matrix(1,0,0,1,376.03,809.5)" ed:tosuperid="272" stroke="#696969" ed:parentid="101" id="276" fill="none" stroke-width="3" stroke-linecap="round" d="M19.5,0L-19.5,0"/><path stroke-linejoin="round" transform="matrix(1,0,0,1,268.43,956.5)" ed:tosuperid="273" stroke="#696969" ed:parentid="101" id="277" fill="none" stroke-width="3" stroke-linecap="round" d="M-19.5,0L19.5,0"/><path stroke-linejoin="round" transform="matrix(1,0,0,1,1029.97,736)" ed:tosuperid="279" stroke="#696969" ed:parentid="101" id="280" fill="none" stroke-width="3" stroke-linecap="round" d="M0,-73.5C98.2,-73.5,98.2,73.5,0,73.5"/><path stroke-linejoin="round" transform="matrix(1,0,0,1,567.31,809.5)" ed:tosuperid="281" stroke="#696969" ed:parentid="101" id="282" fill="none" stroke-width="3" stroke-linecap="round" d="M19.5,0L-19.5,0"/><path stroke-linejoin="round" transform="matrix(1,0,0,1,96.65,883)" ed:tosuperid="283" stroke="#696969" ed:parentid="101" id="284" fill="none" stroke-width="3" stroke-linecap="round" d="M0,-73.5C-98.2,-73.5,-98.2,73.5,0,73.5"/><path stroke-linejoin="round" transform="matrix(1,0,0,1,616.31,956.5)" ed:tosuperid="285" stroke="#696969" ed:parentid="101" id="286" fill="none" stroke-width="3" stroke-linecap="round" d="M-19.5,0L19.5,0"/><path stroke-linejoin="round" transform="matrix(1,0,0,1,567.31,662.5)" ed:tosuperid="278" stroke="#696969" ed:parentid="101" id="287" fill="none" stroke-width="3" stroke-linecap="round" d="M-19.5,0L19.5,0"/><path stroke-linejoin="round" transform="matrix(1,0,0,1,807.59,956.5)" ed:tosuperid="288" stroke="#696969" ed:parentid="101" id="289" fill="none" stroke-width="3" stroke-linecap="round" d="M-19.5,0L19.5,0"/><path stroke-linejoin="round" transform="matrix(1,0,0,1,1078.97,1030)" ed:tosuperid="290" stroke="#696969" ed:parentid="101" id="291" fill="none" stroke-width="3" stroke-linecap="round" d="M-0,-73.5C98.2,-73.5,98.2,73.5,-0,73.5"/><path stroke-linejoin="round" transform="matrix(1,0,0,1,588.31,1103.5)" ed:tosuperid="292" stroke="#696969" ed:parentid="101" id="293" fill="none" stroke-width="3" stroke-linecap="round" d="M19.5,0L-19.5,0"/><path stroke-linejoin="round" transform="matrix(1,0,0,1,907.19,1103.5)" ed:tosuperid="294" stroke="#696969" ed:parentid="101" id="295" fill="none" stroke-width="3" stroke-linecap="round" d="M19.5,0L-19.5,0"/><path stroke-linejoin="round" transform="matrix(1,0,0,1,333.61,1179.25)" ed:tosuperid="296" stroke="#696969" ed:parentid="101" id="297" fill="none" stroke-width="3" stroke-linecap="round" d="M0,-75.8C-100.9,-75.8,-100.9,75.8,0,75.8"/><path stroke-linejoin="round" transform="matrix(1,0,0,1,617.87,1255)" ed:tosuperid="298" stroke="#696969" ed:parentid="101" id="299" fill="none" stroke-width="3" stroke-linecap="round" d="M-19.5,0L19.5,0"/><path stroke-linejoin="round" transform="matrix(1,0,0,1,809.15,1255)" ed:tosuperid="300" stroke="#696969" ed:parentid="101" id="301" fill="none" stroke-width="3" stroke-linecap="round" d="M-19.5,0L19.5,0"/><path stroke-linejoin="round" transform="matrix(1,0,0,1,1036.41,1325.5)" ed:tosuperid="302" stroke="#696969" ed:parentid="101" id="303" fill="none" stroke-width="3" stroke-linecap="round" d="M0,-70.5C94.6,-70.5,94.6,70.5,0,70.5"/><g ed:width="216.96" transform="matrix(1,0,0,1,69.25,21)" ed:height="85" ed:topictype="mainidea" ed:layout="map" id="101"><path stroke-linejoin="round" stroke="#2d9f7d" fill="#7c49fa" stroke-width="3" d="M42.5,0L174.5,0C197.9,0,217,19,217,42.5C217,66,197.9,85,174.5,85L42.5,85C19,85,0,66,0,42.5C0,19,19,0,42.5,0z"/><text class="st1"><tspan style="white-space:pre" y="39.5" x="34">Angular启动</tspan><tspan style="white-space:pre" y="62.5" class="st2" x="52">shell:ng serve</tspan></text></g><g ed:width="161.88" transform="matrix(1,0,0,1,325.21,22.5)" ed:height="82" ed:parentid="101" ed:layout="map" id="104"><path stroke-linejoin="round" stroke="#a8df41" fill="#a8df41" stroke-width="3" d="M41,0L120.9,0C143.5,0,161.9,18.4,161.9,41C161.9,63.6,143.5,82,120.9,82L41,82C18.4,82,0,63.6,0,41C0,18.4,18.4,0,41,0z"/><text class="st3"><tspan style="white-space:pre" y="27.5" x="37">读取配置</tspan><tspan style="white-space:pre" y="48.5" class="st4" x="37">angular.json</tspan><tspan style="white-space:pre" y="67.5" class="st4" x="37">tsconfig.json</tspan></text></g><g ed:width="183.24" transform="matrix(1,0,0,1,526.09,28.5)" ed:height="70" ed:parentid="101" ed:layout="map" id="106"><path stroke-linejoin="round" stroke="#35b58f" fill="#35b58f" stroke-width="3" d="M35,0L148.2,0C167.6,0,183.2,15.7,183.2,35C183.2,54.3,167.6,70,148.2,70L35,70C15.7,70,0,54.3,0,35C0,15.7,15.7,0,35,0z"/><text class="st3"><tspan style="white-space:pre" y="27.5" x="33">执行默认入口</tspan><tspan style="white-space:pre" y="53.5" x="33">Main.ts文件</tspan></text></g><g ed:width="240.52" transform="matrix(1,0,0,1,748.33,41.5)" ed:height="44" ed:parentid="101" ed:layout="map" id="108"><path stroke-linejoin="round" stroke="#f0c43d" fill="#f0c43d" stroke-width="3" d="M22,0L218.5,0C230.7,0,240.5,9.8,240.5,22C240.5,34.2,230.7,44,218.5,44L22,44C9.8,44,0,34.2,0,22C0,9.8,9.8,0,22,0z"/><text class="st3"><tspan style="white-space:pre" y="27.5" x="24">AppModule类实例化</tspan></text></g><g ed:width="240.52" transform="matrix(1,0,0,1,748.33,186)" ed:height="44" ed:parentid="101" ed:layout="map" id="110"><path stroke-linejoin="round" stroke="#ff6991" fill="#ff6991" stroke-width="3" d="M22,0L218.5,0C230.7,0,240.5,9.8,240.5,22C240.5,34.2,230.7,44,218.5,44L22,44C9.8,44,0,34.2,0,22C0,9.8,9.8,0,22,0z"/><text class="st3"><tspan style="white-space:pre" y="27.5" x="24">AppComponent执行</tspan></text></g><g ed:width="230.24" transform="matrix(1,0,0,1,479.09,173)" ed:height="70" ed:parentid="101" ed:layout="map" id="112"><path stroke-linejoin="round" stroke="#69afff" fill="#c2c2c2" stroke-width="3" d="M35,0L195.2,0C214.6,0,230.2,15.7,230.2,35C230.2,54.3,214.6,70,195.2,70L35,70C15.7,70,0,54.3,0,35C0,15.7,15.7,0,35,0z"/><text class="st3"><tspan style="white-space:pre" y="27.5" x="33">假设实现了完整的</tspan><tspan style="white-space:pre" y="53.5" x="33">生命周期hook方法</tspan></text></g><g ed:width="136.28" transform="matrix(1,0,0,1,303.81,182)" ed:height="52" ed:parentid="101" ed:layout="map" id="114"><path stroke-linejoin="round" stroke="#f17663" fill="#f17663" stroke-width="3" d="M26,0L110.3,0C124.6,0,136.3,11.6,136.3,26C136.3,40.4,124.6,52,110.3,52L26,52C11.6,52,0,40.4,0,26C0,11.6,11.6,0,26,0z"/><text class="st5"><tspan style="white-space:pre" y="20.5" x="26">Get模板中绑定</tspan><tspan style="white-space:pre" y="37.5" x="30">的Title值为空</tspan></text></g><g ed:width="223.64" transform="matrix(1,0,0,1,303.81,323)" ed:height="65" ed:parentid="101" ed:layout="map" id="116"><path stroke-linejoin="round" stroke="#58d7cb" fill="#58d7cb" stroke-width="3" d="M32.5,0L191.1,0C209.1,0,223.6,14.6,223.6,32.5C223.6,50.4,209.1,65,191.1,65L32.5,65C14.6,65,0,50.4,0,32.5C0,14.6,14.6,0,32.5,0z"/><text class="st3"><tspan style="white-space:pre" y="29.5" class="st6" x="63">ngOnInit</tspan><tspan style="white-space:pre" y="50.5" class="st7" x="31">AppComponent中的执行</tspan></text></g><g ed:width="223.64" transform="matrix(1,0,0,1,566.45,323)" ed:height="65" ed:parentid="101" ed:layout="map" id="118"><path stroke-linejoin="round" stroke="#8e65f5" fill="#8e65f5" stroke-width="3" d="M32.5,0L191.1,0C209.1,0,223.6,14.6,223.6,32.5C223.6,50.4,209.1,65,191.1,65L32.5,65C14.6,65,0,50.4,0,32.5C0,14.6,14.6,0,32.5,0z"/><text class="st3"><tspan style="white-space:pre" y="29.5" class="st6" x="49">ngDoCheck</tspan><tspan style="white-space:pre" y="50.5" class="st7" x="31">AppComponent中的执行</tspan></text></g><g style="display:none" ed:width="129" transform="matrix(1,0,0,1,371.21,136.5)" ed:height="23" ed:parentid="104" ed:layout="map" id="132"><path fill="#f1f9e8" d="M0,0L129,0L129,23L0,23L0,0z"/><text class="st8"><tspan style="white-space:pre" y="16.4" x="9">配置入口为Main.ts</tspan></text></g><g style="display:none" ed:width="294" transform="matrix(1,0,0,1,934.41,130.5)" ed:height="23" ed:parentid="106" ed:layout="map" id="134"><path fill="#e8f3ee" d="M0,0L294,0L294,23L0,23L0,0z"/><text class="st8"><tspan style="white-space:pre" y="16.4" x="9">注入入口模块(AppModule)开始建立模块依赖树</tspan></text></g><g style="display:none" ed:width="341" transform="matrix(1,0,0,1,877.13,486.5)" ed:height="23" ed:parentid="108" ed:layout="map" id="136"><path fill="#fcf5e8" d="M0,0L341,0L341,23L0,23L0,0z"/><text class="st8"><tspan style="white-space:pre" y="16.4" x="9">bootstrap配置项指定的组件(AppComponent)开始执行</tspan></text></g><g style="display:none" ed:width="388" transform="matrix(1,0,0,1,794.33,262)" ed:height="23" ed:parentid="110" ed:layout="map" id="138"><path fill="#ffebee" d="M0,0L388,0L388,23L0,23L0,0z"/><text class="st8"><tspan style="white-space:pre" y="16.4" x="9">这个阶段在组件执行的各个阶段会调用组件的生命周期hook方法</tspan></text></g><g ed:width="270.64" transform="matrix(1,0,0,1,829.09,323)" ed:height="65" ed:parentid="101" ed:layout="map" id="152"><path stroke-linejoin="round" stroke="#4fe3f0" fill="#4fe3f0" stroke-width="3" d="M32.5,0L238.1,0C256.1,0,270.6,14.6,270.6,32.5C270.6,50.4,256.1,65,238.1,65L32.5,65C14.6,65,0,50.4,0,32.5C0,14.6,14.6,0,32.5,0z"/><text class="st3"><tspan style="white-space:pre" y="29.5" class="st6" x="31">ngAfterContentInit</tspan><tspan style="white-space:pre" y="50.5" class="st7" x="55">AppComponent中的执行</tspan></text></g><g ed:width="251.88" transform="matrix(1,0,0,1,295.93,621.5)" ed:height="82" ed:parentid="101" ed:layout="map" id="158"><path stroke-linejoin="round" stroke="#f0c43d" fill="#f0c43d" stroke-width="3" d="M41,0L210.9,0C233.5,0,251.9,18.4,251.9,41C251.9,63.6,233.5,82,210.9,82L41,82C18.4,82,0,63.6,0,41C0,18.4,18.4,0,41,0z"/><text class="st3"><tspan style="white-space:pre" y="27.5" x="57">ngOnChanges</tspan><tspan style="white-space:pre" y="48.5" class="st7" x="45">TitleComponent中的执行</tspan><tspan style="white-space:pre" y="67.5" class="st7" x="37">baseComponent中的被覆盖</tspan></text></g><g style="display:none" ed:width="380" transform="matrix(1,0,0,1,934.41,165.5)" ed:height="30" ed:parentid="106" ed:layout="map" id="177"><path fill="#e8f3ee" d="M0,0L380,0L380,30L0,30L0,0z"/><rect y="2.5" x="9.3" height="26" width="361" fill="#55aa00"/><text class="st9"><tspan textLength="361.00" style="white-space:pre" y="21.5" x="9">实例化依赖的相关组件类，装饰器，模块等</tspan></text></g><g style="display:none" ed:width="266" transform="matrix(1,0,0,1,962.01,217.5)" ed:height="23" ed:parentid="177" ed:layout="map" id="179"><path fill="#e8f3ee" d="M0,0L266,0L266,23L0,23L0,0z"/><text class="st8"><tspan style="white-space:pre" y="16.4" x="9">这个过程会递归实例完上面依赖树中的依赖</tspan></text></g><g style="display:none" ed:width="292" transform="matrix(1,0,0,1,989.61,262.5)" ed:height="61" ed:parentid="179" ed:layout="map" id="181"><path fill="#e8f3ee" d="M0,0L292,0L292,61L0,61L0,0z"/><rect y="2.5" x="9.3" height="19" width="273" fill="#ffff7f"/><rect y="21.5" x="9.3" height="19" width="273" fill="#ffff7f"/><rect y="40.5" x="9.3" height="19" width="182" fill="#ffff7f"/><text class="st10"><tspan textLength="273.00" style="white-space:pre" y="16.5" x="9">有些业务逻辑写在上面依赖的组件的构造函数中</tspan><tspan textLength="273.00" style="white-space:pre" y="35.5" x="9">这一步会被拖慢，直到所有同步逻辑都执行完后</tspan><tspan textLength="182.00" style="white-space:pre" y="54.5" x="9">，才到下一环节（效率优化点）</tspan></text></g><g style="display:none" ed:width="388" transform="matrix(1,0,0,1,877.13,451.5)" ed:height="23" ed:parentid="108" ed:layout="map" id="187"><path fill="#fcf5e8" d="M0,0L388,0L388,23L0,23L0,0z"/><text class="st8"><tspan style="white-space:pre" y="16.4" x="9">根模块导入哪些只需一次性导入的模块比如BrowserModule模块</tspan></text></g><g style="display:none" ed:width="276" transform="matrix(1,0,0,1,371.21,171.5)" ed:height="23" ed:parentid="104" ed:layout="map" id="195"><path fill="#f1f9e8" d="M0,0L276,0L276,23L0,23L0,0z"/><text class="st8"><tspan style="white-space:pre" y="16.4" x="9">编译静态文件(组件的模板，TS的语法编译等)</tspan></text></g><g style="display:none" ed:width="318" transform="matrix(1,0,0,1,398.81,216.5)" ed:height="23" ed:parentid="195" ed:layout="map" id="197"><path fill="#f1f9e8" d="M0,0L318,0L318,23L0,23L0,0z"/><text class="st8"><tspan style="white-space:pre" y="16.4" x="9">静态编译过程能发现一些语法错误和模板绑定错误等</tspan></text></g><g style="display:none" ed:width="478" transform="matrix(1,0,0,1,454.01,341.5)" ed:height="23" ed:parentid="219" ed:layout="map" id="218"><path fill="#f1f9e8" d="M0,0L478,0L478,23L0,23L0,0z"/><text class="st8"><tspan style="white-space:pre" y="16.4" x="9">假设：TitleComponent组件类继承了另一个指令BaseComponent作为组件基类</tspan></text></g><g style="display:none" ed:width="423" transform="matrix(1,0,0,1,426.41,296.5)" ed:height="23" ed:parentid="228" ed:layout="map" id="219"><path fill="#f1f9e8" d="M0,0L423,0L423,23L0,23L0,0z"/><text class="st8"><tspan style="white-space:pre" y="16.4" x="9">假设：AppComponent组件存在子组件在模板中引入TitleComponent</tspan></text></g><g style="display:none" ed:width="451" transform="matrix(1,0,0,1,454.01,376.5)" ed:height="23" ed:parentid="219" ed:layout="map" id="225"><path fill="#f1f9e8" d="M0,0L451,0L451,23L0,23L0,0z"/><text class="st8"><tspan style="white-space:pre" y="16.4" x="9">假设：AppComponent组件传递给Title组件了一个变量title，且初始值为空</tspan></text></g><g style="display:none" ed:width="331" transform="matrix(1,0,0,1,398.81,251.5)" ed:height="23" ed:parentid="195" ed:layout="map" id="228"><path fill="#f1f9e8" d="M0,0L331,0L331,23L0,23L0,0z"/><text class="st8"><tspan style="white-space:pre" y="16.4" x="9">为了更完整的看到生命周期的执行，我们建立如下假设</tspan></text></g><g style="display:none" ed:width="379" transform="matrix(1,0,0,1,248.73,275)" ed:height="23" ed:parentid="112" ed:layout="map" id="232"><path fill="#c2c2c2" d="M0,0L379,0L379,23L0,23L0,0z"/><text class="st8"><tspan style="white-space:pre" y="16.4" x="9">AppComponent和BaseComponnet都实现如下生命周期hook</tspan></text></g><g style="display:none" ed:width="433" transform="matrix(1,0,0,1,276.33,320)" ed:height="23" ed:parentid="232" ed:layout="map" id="238"><path fill="#c2c2c2" d="M0,0L433,0L433,23L0,23L0,0z"/><text class="st8"><tspan style="white-space:pre" y="16.4" x="9">OnChanges,OnInit,DoCheck,AfterContentInit,AfterContentChecked</tspan></text></g><g style="display:none" ed:width="215" transform="matrix(1,0,0,1,276.33,355)" ed:height="23" ed:parentid="232" ed:layout="map" id="240"><path fill="#c2c2c2" d="M0,0L215,0L215,23L0,23L0,0z"/><text class="st8"><tspan style="white-space:pre" y="16.4" x="9">AfterViewInit,AfterViewChecked</tspan></text></g><g ed:width="248.88" transform="matrix(1,0,0,1,487.21,459.5)" ed:height="82" ed:parentid="101" ed:layout="map" id="252"><path stroke-linejoin="round" stroke="#a8df41" fill="#a8df41" stroke-width="3" d="M41,0L207.9,0C230.5,0,248.9,18.4,248.9,41C248.9,63.6,230.5,82,207.9,82L41,82C18.4,82,0,63.6,0,41C0,18.4,18.4,0,41,0z"/><text class="st3"><tspan style="white-space:pre" y="27.5" x="68">@Input执行</tspan><tspan style="white-space:pre" y="48.5" class="st7" x="37">AppComponent中的变量值</tspan><tspan style="white-space:pre" y="67.5" class="st7" x="43">传递给了TitleComponent</tspan></text></g><g ed:width="324.64" transform="matrix(1,0,0,1,775.09,468)" ed:height="65" ed:parentid="101" ed:layout="map" id="263"><path stroke-linejoin="round" stroke="#7c49fa" fill="#7c49fa" stroke-width="3" d="M32.5,0L292.1,0C310.1,0,324.6,14.6,324.6,32.5C324.6,50.4,310.1,65,292.1,65L32.5,65C14.6,65,0,50.4,0,32.5C0,14.6,14.6,0,32.5,0z"/><text class="st3"><tspan style="white-space:pre" y="29.5" class="st6" x="31">ngAfterContentChecked</tspan><tspan style="white-space:pre" y="50.5" class="st7" x="82">AppComponent中的执行</tspan></text></g><g ed:width="152.28" transform="matrix(1,0,0,1,295.93,474.5)" ed:height="52" ed:parentid="101" ed:layout="map" id="268"><path stroke-linejoin="round" stroke="#35b58f" fill="#35b58f" stroke-width="3" d="M26,0L126.3,0C140.6,0,152.3,11.6,152.3,26C152.3,40.4,140.6,52,126.3,52L26,52C11.6,52,0,40.4,0,26C0,11.6,11.6,0,26,0z"/><text class="st5"><tspan style="white-space:pre" y="20.5" x="34">Get模板中绑定</tspan><tspan style="white-space:pre" y="37.5" x="26">的Title值为传递值</tspan></text></g><g ed:width="251.88" transform="matrix(1,0,0,1,778.09,621.5)" ed:height="82" ed:parentid="101" ed:layout="map" id="270"><path stroke-linejoin="round" stroke="#69afff" fill="#69afff" stroke-width="3" d="M41,0L210.9,0C233.5,0,251.9,18.4,251.9,41C251.9,63.6,233.5,82,210.9,82L41,82C18.4,82,0,63.6,0,41C0,18.4,18.4,0,41,0z"/><text class="st3"><tspan style="white-space:pre" y="27.5" x="82">ngOnInit</tspan><tspan style="white-space:pre" y="48.5" class="st7" x="45">TitleComponent中的执行</tspan><tspan style="white-space:pre" y="67.5" class="st7" x="37">baseComponent中的被覆盖</tspan></text></g><g ed:width="251.88" transform="matrix(1,0,0,1,586.81,768.5)" ed:height="82" ed:parentid="101" ed:layout="map" id="271"><path stroke-linejoin="round" stroke="#58d7cb" fill="#58d7cb" stroke-width="3" d="M41,0L210.9,0C233.5,0,251.9,18.4,251.9,41C251.9,63.6,233.5,82,210.9,82L41,82C18.4,82,0,63.6,0,41C0,18.4,18.4,0,41,0z"/><text class="st3"><tspan style="white-space:pre" y="27.5" x="70">ngDoCheck</tspan><tspan style="white-space:pre" y="48.5" class="st7" x="45">TitleComponent中的执行</tspan><tspan style="white-space:pre" y="67.5" class="st7" x="37">baseComponent中的被覆盖</tspan></text></g><g ed:width="259.88" transform="matrix(1,0,0,1,96.65,768.5)" ed:height="82" ed:parentid="101" ed:layout="map" id="272"><path stroke-linejoin="round" stroke="#4fe3f0" fill="#4fe3f0" stroke-width="3" d="M41,0L218.9,0C241.5,0,259.9,18.4,259.9,41C259.9,63.6,241.5,82,218.9,82L41,82C18.4,82,0,63.6,0,41C0,18.4,18.4,0,41,0z"/><text class="st3"><tspan style="white-space:pre" y="27.5" x="37">ngAfterContentInit</tspan><tspan style="white-space:pre" y="48.5" class="st7" x="49">TitleComponent中的执行</tspan><tspan style="white-space:pre" y="67.5" class="st7" x="41">baseComponent中的被覆盖</tspan></text></g><g ed:width="308.88" transform="matrix(1,0,0,1,287.93,915.5)" ed:height="82" ed:parentid="101" ed:layout="map" id="273"><path stroke-linejoin="round" stroke="#a8df41" fill="#a8df41" stroke-width="3" d="M41,0L267.9,0C290.5,0,308.9,18.4,308.9,41C308.9,63.6,290.5,82,267.9,82L41,82C18.4,82,0,63.6,0,41C0,18.4,18.4,0,41,0z"/><text class="st3"><tspan style="white-space:pre" y="27.5" x="37">ngAfterContentChecked</tspan><tspan style="white-space:pre" y="48.5" class="st7" x="73">TitleComponent中的执行</tspan><tspan style="white-space:pre" y="67.5" class="st7" x="66">baseComponent中的被覆盖</tspan></text></g><g ed:width="152.28" transform="matrix(1,0,0,1,586.81,636.5)" ed:height="52" ed:parentid="101" ed:layout="map" id="278"><path stroke-linejoin="round" stroke="#ff6991" fill="#ff6991" stroke-width="3" d="M26,0L126.3,0C140.6,0,152.3,11.6,152.3,26C152.3,40.4,140.6,52,126.3,52L26,52C11.6,52,0,40.4,0,26C0,11.6,11.6,0,26,0z"/><text class="st5"><tspan style="white-space:pre" y="20.5" x="34">Get模板中绑定</tspan><tspan style="white-space:pre" y="37.5" x="26">的Title值为传递值</tspan></text></g><g ed:width="152.28" transform="matrix(1,0,0,1,877.69,783.5)" ed:height="52" ed:parentid="101" ed:layout="map" id="279"><path stroke-linejoin="round" stroke="#f17663" fill="#f17663" stroke-width="3" d="M26,0L126.3,0C140.6,0,152.3,11.6,152.3,26C152.3,40.4,140.6,52,126.3,52L26,52C11.6,52,0,40.4,0,26C0,11.6,11.6,0,26,0z"/><text class="st5"><tspan style="white-space:pre" y="20.5" x="34">Get模板中绑定</tspan><tspan style="white-space:pre" y="37.5" x="26">的Title值为传递值</tspan></text></g><g ed:width="152.28" transform="matrix(1,0,0,1,395.53,783.5)" ed:height="52" ed:parentid="101" ed:layout="map" id="281"><path stroke-linejoin="round" stroke="#8e65f5" fill="#8e65f5" stroke-width="3" d="M26,0L126.3,0C140.6,0,152.3,11.6,152.3,26C152.3,40.4,140.6,52,126.3,52L26,52C11.6,52,0,40.4,0,26C0,11.6,11.6,0,26,0z"/><text class="st5"><tspan style="white-space:pre" y="20.5" x="34">Get模板中绑定</tspan><tspan style="white-space:pre" y="37.5" x="26">的Title值为传递值</tspan></text></g><g ed:width="152.28" transform="matrix(1,0,0,1,96.65,930.5)" ed:height="52" ed:parentid="101" ed:layout="map" id="283"><path stroke-linejoin="round" stroke="#7c49fa" fill="#7c49fa" stroke-width="3" d="M26,0L126.3,0C140.6,0,152.3,11.6,152.3,26C152.3,40.4,140.6,52,126.3,52L26,52C11.6,52,0,40.4,0,26C0,11.6,11.6,0,26,0z"/><text class="st5"><tspan style="white-space:pre" y="20.5" x="34">Get模板中绑定</tspan><tspan style="white-space:pre" y="37.5" x="26">的Title值为传递值</tspan></text></g><g ed:width="152.28" transform="matrix(1,0,0,1,635.81,930.5)" ed:height="52" ed:parentid="101" ed:layout="map" id="285"><path stroke-linejoin="round" stroke="#35b58f" fill="#35b58f" stroke-width="3" d="M26,0L126.3,0C140.6,0,152.3,11.6,152.3,26C152.3,40.4,140.6,52,126.3,52L26,52C11.6,52,0,40.4,0,26C0,11.6,11.6,0,26,0z"/><text class="st5"><tspan style="white-space:pre" y="20.5" x="34">Get模板中绑定</tspan><tspan style="white-space:pre" y="37.5" x="26">的Title值为传递值</tspan></text></g><g ed:width="251.88" transform="matrix(1,0,0,1,827.09,915.5)" ed:height="82" ed:parentid="101" ed:layout="map" id="288"><path stroke-linejoin="round" stroke="#f0c43d" fill="#f0c43d" stroke-width="3" d="M41,0L210.9,0C233.5,0,251.9,18.4,251.9,41C251.9,63.6,233.5,82,210.9,82L41,82C18.4,82,0,63.6,0,41C0,18.4,18.4,0,41,0z"/><text class="st3"><tspan style="white-space:pre" y="27.5" x="48">ngAfterViewInit</tspan><tspan style="white-space:pre" y="48.5" class="st7" x="45">TitleComponent中的执行</tspan><tspan style="white-space:pre" y="67.5" class="st7" x="37">baseComponent中的被覆盖</tspan></text></g><g ed:width="152.28" transform="matrix(1,0,0,1,926.69,1077.5)" ed:height="52" ed:parentid="101" ed:layout="map" id="290"><path stroke-linejoin="round" stroke="#ff6991" fill="#ff6991" stroke-width="3" d="M26,0L126.3,0C140.6,0,152.3,11.6,152.3,26C152.3,40.4,140.6,52,126.3,52L26,52C11.6,52,0,40.4,0,26C0,11.6,11.6,0,26,0z"/><text class="st5"><tspan style="white-space:pre" y="20.5" x="34">Get模板中绑定</tspan><tspan style="white-space:pre" y="37.5" x="26">的Title值为传递值</tspan></text></g><g ed:width="235.2" transform="matrix(1,0,0,1,333.61,1072)" ed:height="63" ed:parentid="101" ed:layout="map" id="292"><path stroke-linejoin="round" stroke="#f17663" fill="#f17663" stroke-width="3" d="M31.5,0L203.7,0C221.1,0,235.2,14.1,235.2,31.5C235.2,48.9,221.1,63,203.7,63L31.5,63C14.1,63,0,48.9,0,31.5C0,14.1,14.1,0,31.5,0z"/><text class="st3"><tspan style="white-space:pre" y="27.5" x="30">ngAfterViewInit</tspan><tspan style="white-space:pre" y="48.5" class="st7" x="30">AppComponent中的变量值</tspan></text></g><g ed:width="279.88" transform="matrix(1,0,0,1,607.81,1062.5)" ed:height="82" ed:parentid="101" ed:layout="map" id="294"><path stroke-linejoin="round" stroke="#69afff" fill="#69afff" stroke-width="3" d="M41,0L238.9,0C261.5,0,279.9,18.4,279.9,41C279.9,63.6,261.5,82,238.9,82L41,82C18.4,82,0,63.6,0,41C0,18.4,18.4,0,41,0z"/><text class="st3"><tspan style="white-space:pre" y="27.5" x="37">ngAfterViewChecked</tspan><tspan style="white-space:pre" y="48.5" class="st7" x="59">TitleComponent中的执行</tspan><tspan style="white-space:pre" y="67.5" class="st7" x="51">baseComponent中的被覆盖</tspan></text></g><g ed:width="264.76" transform="matrix(1,0,0,1,333.61,1224.5)" ed:height="61" ed:parentid="101" ed:layout="map" id="296"><path stroke-linejoin="round" stroke="#58d7cb" fill="#58d7cb" stroke-width="3" d="M30.5,0L234.3,0C251.1,0,264.8,13.7,264.8,30.5C264.8,47.3,251.1,61,234.3,61L30.5,61C13.7,61,0,47.3,0,30.5C0,13.7,13.7,0,30.5,0z"/><text class="st3"><tspan style="white-space:pre" y="27.5" x="30">ngAfterViewChecked</tspan><tspan style="white-space:pre" y="46.5" class="st11" x="53">AppComponent中的变量值</tspan></text></g><g ed:width="152.28" transform="matrix(1,0,0,1,637.37,1229)" ed:height="52" ed:parentid="101" ed:layout="map" id="298"><path stroke-linejoin="round" stroke="#8e65f5" fill="#8e65f5" stroke-width="3" d="M26,0L126.3,0C140.6,0,152.3,11.6,152.3,26C152.3,40.4,140.6,52,126.3,52L26,52C11.6,52,0,40.4,0,26C0,11.6,11.6,0,26,0z"/><text class="st5"><tspan style="white-space:pre" y="20.5" x="34">Get模板中绑定</tspan><tspan style="white-space:pre" y="37.5" x="26">的Title值为传递值</tspan></text></g><g ed:width="207.76" transform="matrix(1,0,0,1,828.65,1224.5)" ed:height="61" ed:parentid="101" ed:layout="map" id="300"><path stroke-linejoin="round" stroke="#4fe3f0" fill="#4fe3f0" stroke-width="3" d="M30.5,0L177.3,0C194.1,0,207.8,13.7,207.8,30.5C207.8,47.3,194.1,61,177.3,61L30.5,61C13.7,61,0,47.3,0,30.5C0,13.7,13.7,0,30.5,0z"/><text class="st3"><tspan style="white-space:pre" y="27.5" x="48">ngDoCheck</tspan><tspan style="white-space:pre" y="46.5" class="st11" x="30">AppComponent中的执行</tspan></text></g><g ed:width="293.76" transform="matrix(1,0,0,1,742.65,1365.5)" ed:height="61" ed:parentid="101" ed:layout="map" id="302"><path stroke-linejoin="round" stroke="#7c49fa" fill="#7c49fa" stroke-width="3" d="M30.5,0L263.3,0C280.1,0,293.8,13.7,293.8,30.5C293.8,47.3,280.1,61,263.3,61L30.5,61C13.7,61,0,47.3,0,30.5C0,13.7,13.7,0,30.5,0z"/><text class="st3"><tspan style="white-space:pre" y="27.5" x="30">ngAfterContentChecked</tspan><tspan style="white-space:pre" y="46.5" class="st11" x="73">AppComponent中的执行</tspan></text></g></svg>